<?xml version="1.0" encoding="UTF-8" standalone="no"?>
<svg
   aria-hidden="true"
   role="img"
   class="iconify iconify--fontisto"
   width="29.34"
   height="32"
   preserveAspectRatio="xMidYMid meet"
   viewBox="0 0 22 24"
   version="1.1"
   id="svg8"
   sodipodi:docname="FontistoIsland.svg"
   inkscape:version="1.1.1 (3bf5ae0d25, 2021-09-20)"
   xmlns:inkscape="http://www.inkscape.org/namespaces/inkscape"
   xmlns:sodipodi="http://sodipodi.sourceforge.net/DTD/sodipodi-0.dtd"
   xmlns="http://www.w3.org/2000/svg"
   xmlns:svg="http://www.w3.org/2000/svg">
  <defs
     id="defs12" />
  <sodipodi:namedview
     id="namedview10"
     pagecolor="#ffffff"
     bordercolor="#666666"
     borderopacity="1.0"
     inkscape:pageshadow="2"
     inkscape:pageopacity="0.0"
     inkscape:pagecheckerboard="0"
     showgrid="false"
     inkscape:zoom="11.422377"
     inkscape:cx="19.260439"
     inkscape:cy="21.667993"
     inkscape:window-width="1330"
     inkscape:window-height="743"
     inkscape:window-x="36"
     inkscape:window-y="0"
     inkscape:window-maximized="1"
     inkscape:current-layer="svg8" />
  <rect
     style="fill:none;stroke-width:24"
     id="rect1091"
     width="24"
     height="24"
     x="-0.011950099"
     y="6.1116767"
     inkscape:export-filename="/home/zen/personal-project/conventional-commit/public/icon.png"
     inkscape:export-xdpi="384"
     inkscape:export-ydpi="384" />
  <g
     id="g1176"
     transform="translate(0.97026145,6.0967406)"
     inkscape:export-filename="/home/zen/personal-project/conventional-commit/public/icon.png"
     inkscape:export-xdpi="384"
     inkscape:export-ydpi="384">
    <path
       fill="currentColor"
       d="M 1.258,4.956 1.098,6.118 2.228,5.802 2.669,6.89 3.489,6.052 4.415,6.772 4.707,5.637 5.869,5.797 5.553,4.667 6.641,4.227 5.803,3.407 6.523,2.481 5.388,2.189 5.548,1.027 4.418,1.343 3.977,0.255 3.152,1.093 2.226,0.373 1.934,1.508 0.772,1.348 1.088,2.478 0,2.919 0.838,3.739 0.118,4.665 Z M 2.687,1.73 A 1.946,1.946 0 1 1 1.478,4.215 L 1.474,4.201 A 1.946,1.946 0 0 1 2.673,1.736 L 2.687,1.732 Z m 2.004,18.852 a 0.399,0.399 0 0 0 0.284,-0.119 l 0.246,-0.254 c 0.434,-0.447 1.04,-0.724 1.711,-0.724 0.671,0 1.277,0.277 1.711,0.724 l 10e-4,0.001 0.252,0.258 a 0.399,0.399 0 0 0 0.284,0.119 h 10e-4 c 0.11,0 0.21,-0.046 0.28,-0.119 l 0.266,-0.27 a 2.382,2.382 0 0 1 1.703,-0.714 c 0.673,0 1.282,0.279 1.716,0.727 l 10e-4,0.001 0.24,0.246 a 0.396,0.396 0 0 0 0.568,0.003 l 0.244,-0.252 c 0.434,-0.447 1.04,-0.724 1.711,-0.724 0.671,0 1.277,0.277 1.711,0.724 l 0.001,0.001 0.25,0.254 a 0.39,0.39 0 0 0 0.568,0 l 0.246,-0.254 c 0.162,-0.164 0.346,-0.305 0.548,-0.418 l 0.012,-0.006 A 13.083,13.083 0 0 0 14.937,17.149 L 14.846,17.12 c -0.674,-2.876 -0.08,-6.654 0.846,-9.511 0.021,-0.022 0.04,-0.042 0.058,-0.064 a 3.425,3.425 0 0 1 2.615,3.323 c 0,0.858 -0.316,1.642 -0.838,2.242 l 0.004,-0.004 0.073,10e-4 a 3.418,3.418 0 1 0 0,-6.836 l -0.111,0.002 h 0.005 c 0.261,-0.075 0.563,-0.127 0.875,-0.145 h 0.011 a 3.695,3.695 0 0 1 3.366,1.626 l 0.008,0.013 A 2.767,2.767 0 0 0 22.031,6.4 V 6.407 A 3.426,3.426 0 0 0 18.223,3.44 L 18.239,3.438 A 3.818,3.818 0 0 0 17.573,3.53 L 17.599,3.525 17.6,3.439 C 17.6,3.195 17.576,2.957 17.531,2.727 L 17.535,2.75 A 3.111,3.111 0 0 0 14.073,0.056 l 0.015,-0.001 c -0.44,0.088 -0.827,0.277 -1.148,0.542 l 0.004,-0.003 a 3.288,3.288 0 0 1 2.02,2.031 l 0.007,0.023 A 4.76,4.76 0 0 0 14.046,2.05 L 14.018,2.037 C 11.991,1.053 9.683,1.62 8.863,3.308 A 2.89,2.89 0 0 0 8.579,4.787 L 8.578,4.778 a 4.16,4.16 0 0 1 2.21,-0.627 c 0.718,0 1.395,0.18 1.986,0.497 L 12.751,4.637 a 4.9,4.9 0 0 1 0.863,0.539 L 13.603,5.168 A 3.736,3.736 0 0 0 9.487,11.202 L 9.485,11.2 c 0.369,0.388 0.82,0.696 1.325,0.895 l 0.025,0.009 A 3.735,3.735 0 0 1 14.794,7.216 L 14.777,7.214 c -2.038,3.902 -3.261,6.946 -3.465,9.291 h -0.05 A 10.717,10.717 0 0 0 8.306,16.924 L 8.382,16.905 A 10.652,10.652 0 0 1 5.898,12.776 L 5.877,12.701 c 0,-0.016 0,-0.032 0.006,-0.045 A 1.822,1.822 0 0 1 8.41,14.48 V 14.474 A 1.822,1.822 0 1 0 6.223,11.56 l 0.004,-0.003 a 2.3,2.3 0 0 1 0.328,-0.34 l 0.004,-0.003 a 1.96,1.96 0 0 1 1.296,-0.486 c 0.24,0 0.471,0.043 0.684,0.122 L 8.525,10.846 A 1.501,1.501 0 0 0 8.207,10.172 l 0.002,0.002 A 1.815,1.815 0 0 0 6.893,9.612 c -0.484,0 -0.924,0.189 -1.25,0.497 L 5.644,10.108 C 5.555,10.183 5.474,10.262 5.4,10.346 L 5.398,10.348 A 2.202,2.202 0 0 0 5.126,10.039 L 5.125,10.038 A 1.65,1.65 0 0 0 3.929,9.528 1.65,1.65 0 0 0 2.794,9.978 L 2.795,9.977 C 2.645,10.14 2.534,10.34 2.477,10.562 L 2.475,10.571 A 1.732,1.732 0 0 1 4,10.815 L 3.995,10.811 A 2.604,2.604 0 0 0 3.377,10.857 L 3.393,10.854 A 2.019,2.019 0 0 0 1.59,13.042 L 1.589,13.034 c 0.054,0.278 0.175,0.522 0.347,0.722 L 1.934,13.754 c 0.297,-0.73 0.946,-1.26 1.731,-1.383 L 3.678,12.369 A 2.342,2.342 0 0 1 4.215,12.326 H 4.211 a 1.9911558,1.9911558 0 1 0 1.033,3.846 L 5.23,16.175 A 1.996,1.996 0 0 1 4.415,14.191 l -0.002,0.012 a 1.979,1.979 0 0 1 0.944,-1.366 l 0.009,-0.005 a 16.413,16.413 0 0 0 1.315,4.837 L 6.639,17.564 a 13.653,13.653 0 0 0 -3.351,2.243 l 0.011,-0.01 c 0.429,0.146 0.794,0.381 1.09,0.684 l 10e-4,10e-4 a 0.485,0.485 0 0 0 0.297,0.102 z"
       id="path2" />
    <path
       fill="currentColor"
       d="m 1.202,21.61 a 0.42,0.42 0 0 0 0.297,-0.125 1.324,1.324 0 0 1 1.9,-10e-4 c 0.329,0.337 0.787,0.546 1.295,0.546 0.508,0 0.966,-0.209 1.294,-0.546 l 0.246,-0.252 a 0.978,0.978 0 0 1 1.406,0 l 0.252,0.258 c 0.328,0.338 0.786,0.547 1.294,0.547 0.504,0 0.961,-0.207 1.288,-0.541 l 0.268,-0.27 a 0.975,0.975 0 0 1 1.401,0.005 l 0.24,0.246 c 0.326,0.34 0.785,0.552 1.293,0.552 h 0.003 c 0.508,0 0.966,-0.211 1.293,-0.549 l 0.001,-0.001 0.244,-0.25 a 0.98,0.98 0 0 1 1.406,0 l 0.246,0.252 c 0.328,0.337 0.786,0.546 1.293,0.546 0.507,0 0.965,-0.209 1.293,-0.546 l 0.247,-0.255 a 0.978,0.978 0 0 1 1.406,0 0.41,0.41 0 0 0 0.592,0 0.44,0.44 0 0 0 0,-0.61 1.804,1.804 0 0 0 -2.589,-0.001 l -0.246,0.254 a 0.978,0.978 0 0 1 -1.406,0 l -0.246,-0.254 a 1.804,1.804 0 0 0 -2.589,-10e-4 l -0.244,0.25 a 0.98,0.98 0 0 1 -1.406,-0.003 l -0.24,-0.246 A 1.797,1.797 0 0 0 10.15,20.604 l -0.266,0.27 A 0.979,0.979 0 0 1 8.483,20.869 L 8.231,20.611 C 7.902,20.274 7.444,20.065 6.936,20.065 c -0.508,0 -0.966,0.209 -1.294,0.546 L 5.396,20.863 A 0.975,0.975 0 0 1 4.695,21.16 H 4.69 A 0.967,0.967 0 0 1 3.993,20.864 C 3.602,20.461 3.056,20.211 2.451,20.211 c -0.605,0 -1.151,0.25 -1.541,0.652 l -0.001,0.001 a 0.439,0.439 0 0 0 0.001,0.61 0.4,0.4 0 0 0 0.295,0.133 z"
       id="path4" />
    <path
       fill="currentColor"
       d="m 21.696,22.584 a 1.804,1.804 0 0 0 -2.589,-0.001 l -0.246,0.254 a 0.98,0.98 0 0 1 -1.406,0 l -0.247,-0.255 a 1.804,1.804 0 0 0 -2.589,-0.001 l -0.244,0.25 a 0.98,0.98 0 0 1 -1.406,-0.003 l -0.24,-0.246 a 1.797,1.797 0 0 0 -2.584,-0.011 l -0.266,0.27 A 0.979,0.979 0 0 1 8.478,22.836 L 8.226,22.578 A 1.804,1.804 0 0 0 5.637,22.577 l -0.246,0.254 a 0.978,0.978 0 0 1 -1.406,0 C 3.594,22.428 3.048,22.178 2.443,22.178 c -0.605,0 -1.151,0.25 -1.541,0.652 l -0.001,0.001 a 0.439,0.439 0 0 0 0.001,0.61 0.41,0.41 0 0 0 0.594,0.002 1.324,1.324 0 0 1 1.9,-0.001 c 0.329,0.337 0.787,0.546 1.295,0.546 0.508,0 0.966,-0.209 1.294,-0.546 L 6.231,23.19 a 0.98,0.98 0 0 1 1.406,0 l 0.252,0.258 a 1.8,1.8 0 0 0 2.582,0.006 l 0.268,-0.27 a 0.975,0.975 0 0 1 1.401,0.005 l 0.24,0.246 c 0.326,0.34 0.785,0.552 1.293,0.552 h 0.003 c 0.507,0 0.965,-0.21 1.292,-0.548 v -0.001 l 0.244,-0.25 a 0.978,0.978 0 0 1 1.406,0 l 0.246,0.252 c 0.328,0.337 0.786,0.546 1.293,0.546 0.507,0 0.965,-0.209 1.293,-0.546 l 0.246,-0.252 a 0.978,0.978 0 0 1 1.406,0 0.41,0.41 0 0 0 0.592,0 0.433,0.433 0 0 0 0.002,-0.61 z"
       id="path6" />
  </g>
</svg>
